<svg version="1" xmlns="http://www.w3.org/2000/svg" width="933.333" height="933.333" viewBox="0 0 700.000000 700.000000"><path d="M431 94.9c-4.8 1.5-10.8 5.1-12.9 7.7-4.2 5.3-1.5 13.5 5 14.9 2.2.5 4.4 0 8.4-2 9.3-4.8 11.9-3.7 19.2 8.2 2.1 3.4 9.7 15.3 16.8 26.4 7.2 11.2 13.1 20.8 13.3 21.4.1.6-4.2 3.5-9.6 6.6-9 5.1-10 5.4-10.8 3.7-.5-1-3.8-6.3-7.4-11.9-3.6-5.5-7.2-11.1-8-12.5-10.5-16.9-22.1-34.3-24.5-36.7-8.3-8.3-21-10.2-31.9-4.8-7.9 3.9-9.8 6-10 11.1 0 3 .5 4.6 2.5 6.5 3.6 3.7 7.4 3.7 14 .1 5.2-2.8 5.8-2.9 8.8-1.6 3.5 1.4 3 .7 25.4 35.7 17.7 27.6 16.4 24.9 12.5 26.9-8.5 4.4-9.3 9.5-3.3 21.9 6.7 14.1 19 22.5 34.5 23.8 5.9.5 15.5-1.5 20.5-4.3 20.8-11.6 23.2-14.5 19.3-22.6-1.1-2.4-4.8-4.4-8-4.4-1.2 0-6.9 2.8-12.7 6.2-9.6 5.6-11.1 6.2-16.1 6.2-7.9-.1-15.3-4.3-18.6-10.6-1.4-2.6-1.3-2.8 1.8-4.5 1.8-1 4.2-2.3 5.3-3 1.1-.7 2.7-1.6 3.5-2 .8-.4 4.4-2.3 8-4.3 12-6.8 15.4-8.7 27.4-15.5 15.3-8.6 15.9-8.8 20-7.1 2.6 1.1 4.1 2.8 6.5 7.8 6.4 13.2 7.3 21.8 5.5 53.3-.5 8.8-.8 22.7-.8 31 .1 13.3.4 16 2.7 23.8 4.2 13.8 7.5 19.6 23.6 41.9 3.1 4.2 12.5 17.4 20.9 29.2 17.1 23.9 18.4 25.1 25.1 21.9 4.4-2.2 6.9-8 4.9-11.6-.6-1.2-11.7-17.1-24.7-35.2-12.9-18.2-24.8-35.3-26.3-38-4.6-8.2-7.4-18.5-7.9-29-.2-4.1 1.2-38.5 1.7-41 .8-4.2.4-27.2-.6-32.4-2.6-13.8-8.4-27.3-14.2-33-9-9-21.9-10.5-34.8-3.9l-7.1 3.6-1.3-2.1c-22.3-35.2-37.4-57.8-40.3-60.4-6.2-5.3-17.6-7.7-25.3-5.4zM358.2 137.1c-4.7 1.4-13.3 6.7-16.4 10.2-8.3 9.2-6.9 20.5 2.6 22.3 3.2.5 8.3-3 10-7 2.5-6 12.4-9.5 17.2-6.2 1.1.8 11.1 15.2 22.3 32 19.1 28.6 21.3 31.4 25.9 32.2 5.2.9 10.9-5.3 9.8-10.7-.3-1.5-10-16.9-21.5-34.1-15.6-23.5-21.9-32.1-24.9-34.2-7.2-5-17.1-6.8-25-4.5z"/><path d="M343 179.7c-6.1 2.1-17.2 9.4-19.7 12.9-5.9 8.5-7.6 18.1-4.4 26.2 1.5 3.9 18.5 31.3 60.9 98.2 3.7 5.7 7.2 11.2 7.7 12.2 4.7 8.2 20.6 32.2 23.7 36 4.7 5.7 11.4 10 19.4 12.6 15.7 5.1 16.1 5.6 38.5 50.4 11.4 22.8 19.7 38.3 21.1 39.2 3.4 2.4 8.5 2 11.3-.8 5.3-5.3 5.5-4.7-16-47.5-18.6-37.2-20.1-39.9-25.9-45.7-6.6-6.6-12.1-9.8-22.8-13.3-9.5-3.2-12-6.2-34.9-43.4-1.4-2.3-7.5-11.9-13.5-21.4-6-9.5-19.5-30.9-30.1-47.6-24.3-38.5-22.7-35.6-22-39.7.6-2.9 1.7-4.1 6.7-7.3 6.4-4 10.3-4.6 13.7-2.2 1.1.8 7 9.2 13 18.6 12.4 19.7 15.7 23.7 19.7 24.3 5.6 1 10.1-3 10.1-8.8-.1-3.5-2-7-12.5-23.5-6.9-10.7-14-20.9-15.9-22.7-7.2-7.1-18.9-9.9-28.1-6.7zM310.2 257.6c-6.1 2.5-7.1 9.5-2.3 16.3 1.2 1.6 2.1 3.1 2.1 3.4 0 .5-6.7 4.9-24.2 15.7-32.2 20.1-86.6 54.2-93.3 58.5-8.9 5.7-19.6 12.5-22.3 14-4.4 2.6-29.6 18.5-37.7 23.9-17.4 11.6-32 29.3-39.1 47.3-5.6 14.2-7.2 29-4.7 43.3 1.2 7.4 4.8 18.7 6.4 20.4.4.5 8.6-4 18.7-10.3l17.9-11.2.7-4.7c1.3-9.6 2.6-17.3 3.2-19.4.3-.9.6-2.5.8-3.5 3.5-18 11.4-37.4 18.6-45.6 7.7-8.7 13.8-11.1 33-13.2 12.3-1.3 15.3-3.2 23.9-15.2 10.1-14 18.3-18.8 34.5-19.9 15.5-1.1 16.9-2.1 28.6-19.5 3.4-4.9 8.2-11 10.7-13.5 5.1-4.9 14.1-9.7 21.8-11.4 6.3-1.5 18.8-2.4 21.9-1.6 2 .5 10.2 12.2 16.9 24.2.4.6-3.1-.4-7.6-2.3-7.1-2.9-9.2-3.3-16.2-3.2-9.4.2-17.2 2.5-22.2 6.6-2 1.5-7 7.8-11.1 13.8-12.9 18.9-19.4 23.4-36.7 25-16.1 1.6-17.8 2.5-26.9 14.9-11.2 15-19.2 19.6-37.6 21.1-10.4.9-14.8 2.2-17.7 5.3-3.1 3.3-7.3 11.5-10.6 20.7-2.8 8-7.2 26.3-6.5 27.1.3.2 17.6-10.2 38.4-23.3 20.9-13 42.4-26.5 47.9-29.9 5.5-3.5 14.2-8.9 19.3-12.1 5.2-3.2 10.4-6.5 11.8-7.3 1.3-.8 19.6-12.3 40.6-25.5s38.5-24.1 38.8-24.2c.3-.2 1.8 1.7 3.4 4.2 3.2 5.2 5.2 6.5 9.6 6.5 4.2 0 9-4.7 9-8.9 0-1.9-1.7-5.8-4.6-10.3-2.5-4-5.1-8.2-5.7-9.3-.7-1.1-2.8-4.4-4.7-7.5-1.9-3.1-4-6.4-4.7-7.5-.7-1.1-3.1-5.1-5.5-8.8-2.4-3.7-4.7-7.6-5.3-8.5-.5-.9-5.4-8.8-10.9-17.5-11.5-18.4-13.5-20-20.4-17.1zM223.8 475.6c-15.7 24.6-17.7 34.3-8.9 43.7 5 5.4 14.7 7.3 21.2 4.1 7-3.5 11.8-12.6 10.5-19.8-.8-4.3-7.9-18.5-14-28l-4.4-7-4.4 7zM170.7 545.8c-2.2 2.5-9.8 15.6-13.7 23.7-5.9 12.1-4.2 21.4 4.9 27.6 2.8 1.9 4.7 2.4 10.1 2.4 5.7 0 7.2-.4 10.3-2.7 8-6.2 10-13.1 6.5-22.7-2-5.5-8-16.6-13.7-25.5-2.6-4.3-2.9-4.4-4.4-2.8z"/></svg>